<svg width="450" height="450" viewBox="0 0 450 450" fill="none" xmlns="http://www.w3.org/2000/svg">
<rect width="450" height="450" rx="110" fill="#009A80"/>
<path d="M227.767 57.121C229.792 56.916 231.733 56.767 233.731 56.367L280.863 142.088L303.769 183.233C308.313 191.32 313.777 200.472 318.028 208.574C329.002 207.33 339.854 208.609 350.77 209.8C356.034 210.374 360.508 209.499 358.42 216.193C357.203 216.871 352.069 215.804 350.279 215.537C340.484 214.076 330.757 213.372 320.844 213.701L355.456 276.264C359.487 283.465 363.447 290.707 367.333 297.987C369.028 301.103 372.035 305.871 373.106 308.973C371.705 309.63 370.31 309.401 368.721 309.354C366.328 308.02 357.969 291.921 355.846 288.06L333.433 247.46C328.335 238.036 320.146 222.363 314.392 213.616C299.74 215.527 284.102 219.24 270.372 224.699C280.78 243.198 291.01 261.796 301.062 280.491C305.221 288.145 313.409 302.209 316.712 309.685L310.692 309.782C295.989 283.053 279.407 253.932 265.672 227.001C259.965 230 254.221 232.937 248.843 236.507C232.117 247.607 216.955 263.536 206.204 280.379C202.998 285.404 191.503 309.221 191.413 309.263C190.552 309.663 187.802 309.391 186.873 309.126C186.922 306.217 189.389 301.555 190.571 298.767C204.075 266.91 231.465 236.936 263.246 222.594C260.579 217.5 257.776 212.477 254.957 207.465C244.964 189.693 235.533 171.612 225.452 153.889C224.607 151.915 222.711 149.081 221.523 147.173C222.286 144.559 223.266 142.995 224.551 140.619L254.013 194.004C258.771 202.559 263.436 211.793 268.44 220.17C285.969 213.377 293.326 211.411 312.001 208.817C301.557 191.21 291.675 172.695 281.79 154.734L227.767 57.121Z" fill="black"/>
<path d="M222.198 49.73C233.952 49.607 249.244 51.012 260.732 53.305C307.45 62.556 348.512 90.142 374.739 129.895C388.995 151.362 398.408 176.717 401.096 202.396C402.061 210.244 401.473 218.216 401.738 226.076C402.647 253.031 397.609 281.154 383.465 304.439C382.761 305.599 380.963 309.088 379.998 309.725C379.584 307.394 383.505 301.147 384.592 298.775C413.672 235.345 401.73 155.897 352.41 105.864C318.243 71.203 276.229 53.763 228.536 52.45C223.106 51.757 216.172 52.273 210.632 52.591C181.687 54.251 153.445 64.387 128.907 79.733C91.444 102.986 64.66 140.073 54.367 182.948C52.069 192.797 51.281 200.568 50.441 210.533C48.563 231.858 50.399 253.347 55.869 274.044C58.945 285.389 63.009 294.683 68.236 305.103C68.721 306.069 69.144 307.41 68.892 308.496C65.629 306.968 63.397 300.536 61.909 297.336C53.089 278.354 49.399 259.679 48.12 239.082C45.041 189.533 57.705 142.619 93.171 106.513C128.288 69.545 171.344 51.269 222.198 49.73Z" fill="black"/>
<path d="M217.531 56.843L224.282 56.974C217.864 66.899 210.071 81.505 204.157 92.066L178.421 137.343C146.404 194.957 113.767 252.224 80.517 309.135C79.362 309.707 76.689 310.203 75.544 309.507C75.266 308.133 75.468 307.347 76.17 306.054C88.071 284.151 101.096 262.811 113.191 241.028L217.531 56.843Z" fill="black"/>
<path d="M230.915 365.929C241.112 364.121 250.837 370.945 252.604 381.149C254.372 391.353 247.51 401.05 237.299 402.777C227.145 404.495 217.514 397.679 215.756 387.532C213.998 377.385 220.775 367.728 230.915 365.929ZM247.603 382.743C246.723 375.329 239.986 370.042 232.575 370.948C225.199 371.85 219.943 378.547 220.82 385.925C221.696 393.302 228.375 398.582 235.756 397.732C243.173 396.876 248.484 390.158 247.603 382.743Z" fill="black"/>
<path d="M221.523 147.173C222.711 149.081 224.607 151.915 225.452 153.889C221.059 160.537 216.003 170.195 211.947 177.379C203.597 191.888 195.396 206.482 187.345 221.158C170.933 250.577 153.434 279.963 136.968 309.54L130.658 309.405C134.721 301.772 139.652 293.671 143.919 286.002L195.383 194.95C203.339 180.811 215.366 161.284 221.523 147.173Z" fill="black"/>
<path d="M168.398 366.134C175.186 365.899 177.381 367.136 181.431 372.385C188.375 364.436 200.284 363.061 206.561 371.871C209.151 375.506 209.285 396.606 208.191 400.798C206.936 402.203 207.692 401.806 205.87 402.076C205.207 401.817 203.717 401.289 203.581 400.509C202.184 392.349 205.81 381.036 201.207 373.698C198.556 369.859 189.532 370.145 186.54 373.1C182.698 376.895 183.743 385.434 183.857 390.554L183.814 401.716L178.464 401.753C178.34 391.197 182.795 367.297 165.797 371.055C152.906 373.905 161.548 395.977 158.115 401.776C156.255 402.26 156.181 402.141 154.337 401.866C153.131 399.843 152.897 368.491 154.326 367.096C156.462 366.935 156.547 366.545 157.937 367.465C158.14 369.039 157.97 369.257 158.777 370.507C162.639 368.078 163.862 366.873 168.398 366.134Z" fill="black"/>
<path d="M297.49 354.925C308.011 354.858 319.247 354.73 329.659 355.144C330.245 355.65 329.964 359.33 329.404 359.359C320.873 359.8 311.208 359.586 302.686 359.625C302.616 365.242 302.595 370.86 302.62 376.477L325.625 376.461C329.459 376.453 326.989 381.145 327.061 381.141C319.146 381.605 310.915 381.286 302.914 381.346C302.856 385.711 303.184 396.402 302.609 401.261C302.524 401.98 297.48 401.876 297.467 401.174C297.183 385.863 297.394 370.31 297.49 354.925Z" fill="#040000"/>
<path d="M333.41 354.778L340.914 354.83C344.496 360.379 348.215 365.838 352.068 371.202C352.669 372.03 353.248 372.861 353.81 373.715C358.358 367.771 363.123 360.905 367.491 354.793C369.64 354.778 371.581 354.839 373.719 354.923C368.297 363.852 363.748 369.715 357.167 377.88C362.763 385.143 368.659 392.139 373.645 399.886C374.24 400.811 374.878 401.169 373.872 401.925C372.88 401.921 368.667 402.12 368.27 401.56C363.953 395.472 358.18 387.993 353.483 382.443C348.911 389.048 344.184 395.553 339.644 402.113C337.352 402.055 335.059 402.012 332.766 401.984C338.019 394.203 343.821 387.007 349.083 379.372C349.404 378.898 349.731 378.428 350.063 377.961C347.607 374.271 344.866 370.554 342.275 366.945L333.41 354.778Z" fill="black"/>
<path d="M270.445 366.082C277.851 365.669 286.137 366.877 287.471 375.749C287.614 376.699 287.64 377.551 286.49 377.484C281.726 377.63 282.93 377.835 281.69 374.881C278.037 366.172 258.46 371.689 267.994 380.009C268.789 380.703 274.806 382.278 275.756 382.41C284.834 383.672 291.809 388.163 286.287 397.794C284.558 400.781 280.23 401.81 276.803 402.471C272.797 402.496 270.449 402.649 266.272 401.392C261.774 400.146 257.68 396.252 258.495 391.271C259.129 390.556 264.136 390.9 264.168 391.239C264.041 397.905 274.854 399.619 278.957 396.862C286.026 392.112 280.168 387.572 274.493 386.614C268.764 385.646 261.22 383.992 259.907 378.251C259.015 374.35 260.977 370.135 264.47 368.242C266.549 367.043 268.145 366.593 270.445 366.082Z" fill="black"/>
<path d="M130.498 358.702C136.632 358.66 134.752 359.583 134.71 366.85C137.741 366.85 143.715 366.528 146.657 367.322C147.218 367.474 147.245 371.028 146.743 371.112C143.163 371.713 138.504 371.363 134.737 371.393C134.65 378.167 134.618 384.981 134.677 391.754C134.74 398.877 139.958 398.584 145.378 398.243C145.24 398.218 150.233 403.609 139.499 402.639C134.043 402.146 129.816 400.119 129.541 394.001C129.192 386.254 129.484 378.922 129.473 371.487C128.515 371.476 124.295 371.73 124.039 371.166C121.395 365.343 127.751 366.766 128.864 366.76L129.567 366.753C129.564 364.67 128.822 359.774 130.498 358.702Z" fill="black"/>
<path d="M101.52 355.29C103.816 355.505 120.117 394.817 122.157 399.71C122.531 400.609 123.377 401.849 121.74 401.886C117.429 401.982 117.966 402.349 116.063 398.504C114.858 396.069 113.388 393.059 112.124 390.415C107.257 390.403 102.39 390.418 97.5234 390.459L85.4541 390.505C83.7351 394.374 82.0459 397.833 80.4219 401.826C78.413 401.856 76.3361 401.81 74.3242 401.785L95.833 355.364C97.7289 355.362 99.6247 355.337 101.52 355.29ZM98.7109 361.262C94.4299 369.353 91.2403 377.614 87.8213 386.078C91.6582 386.106 95.4951 386.093 99.332 386.041L110.495 385.975C108.621 381.689 101.245 363.526 98.7109 361.262Z" fill="black"/>
</svg>
