<svg width="560" height="560" viewBox="0 0 560 560" fill="none" xmlns="http://www.w3.org/2000/svg">
<rect width="560" height="560" rx="120" fill="black"/>
<path d="M282.767 112.121C284.792 111.916 286.733 111.767 288.731 111.367L335.863 197.088L358.769 238.233C363.313 246.32 368.777 255.472 373.028 263.574C384.002 262.33 394.854 263.609 405.77 264.8C411.034 265.374 415.508 264.499 413.42 271.193C412.203 271.871 407.069 270.804 405.279 270.537C395.484 269.076 385.757 268.372 375.844 268.701L410.456 331.264C414.487 338.465 418.447 345.707 422.333 352.987C424.028 356.103 427.035 360.871 428.106 363.973C426.705 364.63 425.31 364.401 423.721 364.354C421.328 363.02 412.969 346.921 410.846 343.06L388.433 302.46C383.335 293.036 375.146 277.363 369.392 268.616C354.74 270.527 339.102 274.24 325.372 279.699C335.78 298.198 346.01 316.796 356.062 335.491C360.221 343.145 368.409 357.209 371.712 364.685L365.692 364.782C350.989 338.053 334.407 308.932 320.672 282.001C314.965 285 309.221 287.937 303.843 291.507C287.117 302.607 271.955 318.536 261.204 335.379C257.998 340.404 246.503 364.221 246.413 364.263C245.552 364.663 242.802 364.391 241.873 364.126C241.922 361.217 244.389 356.555 245.571 353.767C259.075 321.91 286.465 291.936 318.246 277.594C315.579 272.5 312.776 267.477 309.957 262.465C299.964 244.693 290.533 226.612 280.452 208.889C279.607 206.915 277.711 204.081 276.523 202.173C277.286 199.559 278.266 197.995 279.551 195.619L309.013 249.004C313.771 257.559 318.436 266.793 323.44 275.17C340.969 268.377 348.326 266.411 367.001 263.817C356.557 246.21 346.675 227.695 336.79 209.734L282.767 112.121Z" fill="#45B5FC"/>
<path d="M277.198 104.73C288.952 104.607 304.244 106.012 315.732 108.305C362.45 117.556 403.512 145.142 429.739 184.895C443.995 206.362 453.408 231.717 456.096 257.396C457.061 265.244 456.473 273.216 456.738 281.076C457.647 308.031 452.609 336.154 438.465 359.439C437.761 360.599 435.963 364.088 434.998 364.725C434.584 362.394 438.505 356.147 439.592 353.775C468.672 290.345 456.73 210.897 407.41 160.864C373.243 126.203 331.229 108.763 283.536 107.45C278.106 106.757 271.172 107.273 265.632 107.591C236.687 109.251 208.445 119.387 183.907 134.733C146.444 157.986 119.66 195.073 109.367 237.948C107.069 247.797 106.281 255.568 105.441 265.533C103.563 286.858 105.399 308.347 110.869 329.044C113.945 340.389 118.009 349.683 123.236 360.103C123.721 361.069 124.144 362.41 123.892 363.496C120.629 361.968 118.397 355.536 116.909 352.336C108.089 333.354 104.399 314.679 103.12 294.082C100.041 244.533 112.705 197.619 148.171 161.513C183.288 124.545 226.344 106.269 277.198 104.73Z" fill="#07244C"/>
<path d="M272.531 111.843L279.282 111.974C272.864 121.899 265.071 136.505 259.157 147.066L233.421 192.343C201.404 249.957 168.767 307.224 135.517 364.135C134.362 364.707 131.689 365.203 130.544 364.507C130.266 363.133 130.468 362.347 131.17 361.054C143.071 339.151 156.096 317.811 168.191 296.028L272.531 111.843Z" fill="#0F3EFE"/>
<path d="M285.915 420.929C296.112 419.121 305.837 425.945 307.604 436.149C309.372 446.353 302.51 456.05 292.299 457.777C282.145 459.495 272.514 452.679 270.756 442.532C268.998 432.385 275.775 422.727 285.915 420.929Z" fill="#F0F0F0"/>
<path d="M287.575 425.948C294.986 425.042 301.723 430.329 302.603 437.743C303.484 445.158 298.173 451.876 290.756 452.732C283.375 453.582 276.696 448.303 275.82 440.925C274.943 433.547 280.199 426.85 287.575 425.948Z" fill="#070022"/>
<path d="M276.523 202.173C277.711 204.081 279.607 206.915 280.452 208.889C276.059 215.537 271.003 225.195 266.947 232.379C258.597 246.888 250.396 261.482 242.345 276.158C225.933 305.577 208.434 334.963 191.968 364.54L185.658 364.405C189.721 356.772 194.652 348.671 198.919 341.002L250.383 249.95C258.339 235.811 270.366 216.284 276.523 202.173Z" fill="#0F3EFE"/>
<path d="M156.52 410.29C158.816 410.505 175.117 449.817 177.157 454.71C177.531 455.609 178.377 456.849 176.74 456.886C172.429 456.982 172.966 457.349 171.063 453.504C169.858 451.069 168.388 448.059 167.124 445.415C162.257 445.403 157.39 445.418 152.523 445.459L140.454 445.505C138.735 449.374 137.046 452.833 135.422 456.826C133.413 456.856 131.336 456.81 129.324 456.785L150.833 410.364C152.729 410.362 154.625 410.337 156.52 410.29Z" fill="#F0F0F0"/>
<path d="M153.711 416.262C156.245 418.526 163.621 436.69 165.495 440.975L154.332 441.041C150.495 441.093 146.658 441.106 142.821 441.078C146.24 432.614 149.43 424.353 153.711 416.262Z" fill="#070022"/>
<path d="M223.398 421.134C230.186 420.899 232.381 422.136 236.431 427.385C243.375 419.436 255.284 418.061 261.561 426.871C264.151 430.506 264.285 451.606 263.191 455.798C261.936 457.203 262.692 456.806 260.87 457.076C260.207 456.817 258.717 456.289 258.581 455.509C257.184 447.349 260.81 436.036 256.207 428.698C253.556 424.859 244.532 425.145 241.54 428.1C237.698 431.895 238.743 440.434 238.857 445.554L238.814 456.716L233.464 456.753C233.34 446.197 237.795 422.297 220.797 426.055C207.906 428.905 216.548 450.977 213.115 456.776C211.255 457.26 211.181 457.141 209.337 456.866C208.131 454.843 207.897 423.491 209.326 422.096C211.462 421.935 211.547 421.545 212.937 422.465C213.14 424.039 212.97 424.257 213.777 425.507C217.639 423.078 218.862 421.873 223.398 421.134Z" fill="#F0F0F0"/>
<path d="M352.49 409.925C363.011 409.858 374.247 409.73 384.659 410.144C385.245 410.65 384.964 414.33 384.404 414.359C375.873 414.8 366.208 414.586 357.686 414.625C357.616 420.242 357.595 425.86 357.62 431.477L380.625 431.461C384.459 431.453 381.989 436.145 382.061 436.141C374.146 436.605 365.915 436.286 357.914 436.346C357.856 440.711 358.184 451.402 357.609 456.261C357.524 456.98 352.48 456.876 352.467 456.174C352.183 440.863 352.394 425.31 352.49 409.925Z" fill="#F0F0F0"/>
<path d="M388.41 409.778L395.914 409.83C399.496 415.379 403.215 420.838 407.068 426.202C407.669 427.03 408.248 427.861 408.81 428.715C413.358 422.771 418.123 415.905 422.491 409.793C424.64 409.778 426.581 409.839 428.719 409.923C423.297 418.852 418.748 424.715 412.167 432.88C417.763 440.143 423.659 447.139 428.645 454.886C429.24 455.811 429.878 456.169 428.872 456.925C427.88 456.921 423.667 457.12 423.27 456.56C418.953 450.472 413.18 442.993 408.483 437.443C403.911 444.048 399.184 450.553 394.644 457.113C392.352 457.055 390.059 457.012 387.766 456.984C393.019 449.203 398.821 442.007 404.083 434.372C404.404 433.898 404.731 433.428 405.063 432.961C402.607 429.271 399.866 425.554 397.275 421.945L388.41 409.778Z" fill="#F0F0F0"/>
<path d="M325.445 421.082C332.851 420.669 341.137 421.877 342.471 430.749C342.614 431.699 342.64 432.551 341.49 432.484C336.726 432.63 337.93 432.835 336.69 429.881C333.037 421.172 313.46 426.689 322.994 435.009C323.789 435.703 329.806 437.278 330.756 437.41C339.834 438.672 346.809 443.163 341.287 452.794C339.558 455.781 335.23 456.81 331.803 457.471C327.797 457.496 325.449 457.649 321.272 456.392C316.774 455.146 312.68 451.252 313.495 446.271C314.129 445.556 319.136 445.9 319.168 446.239C319.041 452.905 329.854 454.619 333.957 451.862C341.026 447.112 335.168 442.572 329.493 441.614C323.764 440.646 316.22 438.992 314.907 433.251C314.015 429.35 315.977 425.135 319.47 423.242C321.549 422.043 323.145 421.593 325.445 421.082Z" fill="#F0F0F0"/>
<path d="M185.498 413.702C191.632 413.66 189.752 414.583 189.71 421.85C192.741 421.85 198.715 421.528 201.657 422.322C202.218 422.474 202.245 426.028 201.743 426.112C198.163 426.713 193.504 426.363 189.737 426.393C189.65 433.167 189.618 439.981 189.677 446.754C189.74 453.877 194.958 453.584 200.378 453.243C200.24 453.218 205.233 458.609 194.499 457.639C189.043 457.146 184.816 455.119 184.541 449.001C184.192 441.254 184.484 433.922 184.473 426.487C183.515 426.476 179.295 426.73 179.039 426.166C176.395 420.343 182.751 421.766 183.864 421.76L184.567 421.753C184.564 419.67 183.822 414.774 185.498 413.702Z" fill="#F0F0F0"/>
</svg>
